<?xml version="1.0" encoding="utf-8"?>
<!-- Generator: Adobe Illustrator 19.2.1, SVG Export Plug-In . SVG Version: 6.00 Build 0)  -->
<svg version="1.1" id="layer" xmlns="http://www.w3.org/2000/svg" xmlns:xlink="http://www.w3.org/1999/xlink" x="0px" y="0px"
	 viewBox="0 0 652 652" style="enable-background:new 0 0 652 652;" xml:space="preserve">
<style type="text/css">
	.st0{fill:#0088CE;}
</style>
<path class="st0" d="M587.7,312c0,24.5-17.2,41-47.6,41c-14.8-0.2-29.4-3.9-42.4-11V319c8.3,5.1,24.1,14.3,42.8,14.3
	c14.6,0,23.8-5.8,23.8-17.9c0-9.1-6.9-15.3-27.4-20.1c-27.4-6.6-38.4-21.2-38.4-38.4c0-19.8,12.8-38,44.6-38
	c12.2,0.3,24.2,3.4,35.1,9.1v21.2c-10.5-6.8-22.6-10.7-35.1-11.3c-15.3,0-21.2,6.6-21.2,15.7c0,9.1,8.3,14.3,23,17.9
	C574.5,278.4,587.7,292.6,587.7,312z"/>
<path class="st0" d="M478,335.4c3.5-0.1,7-0.8,10.2-2.2v11c-5.4,4.7-12.2,7.3-19.3,7.3c-15.4,0-22.3-8-25.2-20.1
	c-11.4,14.1-28.7,22-46.8,21.6c-34.7,0-61.4-30-61.4-67s26.7-67.2,61.4-67.2c18.5-0.8,36.4,7,48.3,21.2l8.8-19.8h15.7V323
	C469.6,332.1,472.5,335.4,478,335.4z M443,263.4c-8.3-14.9-24.1-24-41.1-23.9c-23.8,0-39.8,17.9-39.8,46.8s16.1,46.5,39.8,46.5
	c17.1-0.4,32.8-9.8,41.1-24.8V263.4z"/>
<path class="st0" d="M179.7,240.4c11.8,12.5,18.1,29.1,17.4,46.2c0.6,17.1-5.7,33.8-17.4,46.2c-12,12-30.2,19.2-55,19.2H82.7V221.2
	h42.1C149.6,221.2,167.7,228.4,179.7,240.4z M172.3,286.7c0.6-10.9-2.8-21.6-9.6-30.2c-6.9-7.7-18.4-12.9-37.7-12.9h-18v86.3h18
	c19.3,0,30.8-5.4,37.7-13.1C169.5,308.3,172.9,297.6,172.3,286.7z"/>
<path class="st0" d="M319.5,318.2l7.4,15.6c-14.8,12.2-33.4,19-52.7,19.2c-40.2,0-65.8-28.5-65.8-67.3c0-40.6,28-66.9,62.2-66.9
	c32.5,0,55.5,23.4,55.5,50.1c-0.1,4.6-0.7,9.1-1.8,13.5h-89.6c-2.2,20.1,6.2,49.6,47.2,49.6C295.5,331.3,308.7,326.5,319.5,318.2z
	 M236.9,264.8h62.9c0.2-0.9,0.4-1.9,0.4-2.9c0-12.1-9.8-23.8-29.2-23.8C254.7,237.8,240.4,248.9,236.9,264.8L236.9,264.8z"/>
<path class="st0" d="M57.9,221.2H29l-3.4,10c0,0,8.3,1.2,8.3,12.4v86.1c0,11.2-8.1,12.4-8.1,12.4l3.6,10.1h28.9L57.9,221.2z"/>
<path class="st0" d="M600.7,227.3v12.8h-3.3v-12.8h-5.1v-2.6h13.6v2.6H600.7z M622.7,240.1v-9.2c0-0.4,0-1.6,0-1.6s-0.3,1.2-0.5,1.6
	l-4.1,9.2h-2l-3.6-9.2c0-0.4-0.6-1.6-0.6-1.6s0,1.2,0,1.6v9.2h-2.9v-15.3h3.4l4.8,10.9l4.8-10.9h3.4v15.3H622.7z"/>
<path class="st0" d="M88.3,397.9h3l14.7,34.2h-4.7l-4.1-9.6h-15l-4.1,9.6h-4.4L88.3,397.9z M95.8,418.9l-6.1-14.1l-6,14.1H95.8z"/>
<path class="st0" d="M251.9,415.1c-0.3-9.6,7.3-17.6,16.9-17.9c0.4,0,0.8,0,1.3,0c4.2-0.1,8.3,1.1,11.8,3.4v4.7
	c-3.2-3-7.5-4.6-11.9-4.5c-7.8,0-14,6.3-14,14.1c0,7.8,6.3,14,14,14c4.4,0.1,8.6-1.4,11.9-4.4v4.8c-3.5,2.4-7.7,3.6-11.9,3.6
	c-9.6,0.4-17.7-7.1-18.1-16.7C251.9,415.8,251.9,415.4,251.9,415.1z"/>
<path class="st0" d="M293.2,415.1c-0.1-10,8-18.2,18.1-18.3c10-0.1,18.2,8,18.3,18.1c0.1,10-8,18.2-18.1,18.3c0,0-0.1,0-0.1,0
	c-9.7,0.3-17.9-7.3-18.2-17C293.2,415.8,293.2,415.4,293.2,415.1z M324.8,415.1c-0.4-7.4-6.8-13.1-14.2-12.7
	c-7.4,0.4-13.1,6.8-12.7,14.2c0.4,7.1,6.4,12.7,13.5,12.7c7.3,0.1,13.4-5.8,13.4-13.2C324.9,415.8,324.8,415.4,324.8,415.1z"/>
<path class="st0" d="M342.8,397.9h4.5l13.1,28.4l13.2-28.4h4.1v34.2h-4.2v-23.3c0-0.9,0-2.9,0-2.9s-0.8,2.1-1.2,2.9l-10.7,23.4h-3.1
	L348,408.9c-0.4-0.8-1.2-2.9-1.2-2.9s0,2,0,2.9v23.4h-4.1L342.8,397.9z"/>
<path class="st0" d="M392.8,397.9h11.3c5.7,0,10.3,4.6,10.3,10.3s-4.6,10.3-10.3,10.3h-6.5v13.6h-4.8V397.9z M404.1,414.8
	c3.6,0.3,6.7-2.4,7-6c0.3-3.6-2.4-6.7-6-7c-0.3,0-0.7,0-1,0h-6.5v13H404.1z"/>
<path class="st0" d="M435.7,397.9h3.2l14.7,34.2h-4.7l-4.1-9.6h-15.3l-4.1,9.6H421L435.7,397.9z M443,418.9l-6-14.1l-6,14.1H443z"/>
<path class="st0" d="M465,397.9h2.6l20.4,25.5v-25.5h4.1v34.2h-2.6l-20.4-25.5v25.5h-4.1L465,397.9z"/>
<path class="st0" d="M516.8,418.5l-13.4-20.7h5l10.9,16.8l10.7-16.7h4.7l-13.4,20.7v13.7h-4.5L516.8,418.5z"/>
<path class="st0" d="M138,420.9c0.4,4.1,3.5,5.6,7.3,5.6c2.7,0,7.4-0.5,7.2-4.1c-0.2-3.6-5.3-4.1-10.5-5.4c-5.2-1.2-10.3-3-10.3-9.5
	c0-6.5,7.6-9.3,13.4-9.3c6.6,0,12.6,2.8,13.5,9.9h-7.4c-0.6-3.3-3.4-4.1-6.5-4.1c-2.1,0-5.9,0.5-5.9,3.3c0,3.5,5.2,4.1,10.5,5.2
	c5.2,1,10.4,3.1,10.4,9.4c0,7.6-7.7,10.5-14.4,10.5c-8.3,0-14.1-3.6-14.3-11.2L138,420.9z"/>
<path class="st0" d="M190.9,424c0,1.8,0.4,2.4,1.7,2.4c0.6,0.1,1.2,0.1,1.7,0v4.9c-1.5,0.5-3,0.7-4.5,0.8c-2.9,0-4.9-1-5.5-4.1
	c-3.1,2.7-7.1,4.2-11.2,4.1c-5.8,0-11-3.1-11-9.4c0-8,6.4-9.3,12.4-10c5.1-1,9.7-0.4,9.7-4.5s-3.8-4.4-6.7-4.4
	c-4.1,0-6.8,1.6-7.1,5.1h-7.3c0.5-8.3,7.5-10.7,14.6-10.7c6.3,0,12.9,2.6,12.9,9.4L190.9,424z M183.8,415.1
	c-2.8,1.2-5.7,1.8-8.7,1.9c-3.1,0.5-5.8,1.6-5.8,5.4s4.1,4.1,6.5,4.1c3.1,0,8-1.6,8-6.1V415.1z"/>
<path class="st0" d="M202.5,420.9c0.4,4.1,3.5,5.6,7.3,5.6c2.7,0,7.4-0.5,7.2-4.1c-0.2-3.6-5.4-4.1-10.5-5.4
	c-5.2-1.2-10.3-3-10.3-9.5c0-6.5,7.6-9.3,13.4-9.3c6.6,0,12.4,2.8,13.5,9.9h-7.3c-0.6-3.3-3.4-4.1-6.6-4.1c-2,0-5.8,0.5-5.8,3.3
	c0,3.5,5.2,4.1,10.5,5.2c5.2,1,10.2,2.8,10.2,9.2c0,7.6-7.7,10.5-14.4,10.5c-8.3,0-14.2-3.6-14.3-11.2H202.5z"/>
</svg>
